<?xml version="1.0" encoding="UTF-8"?>
<svg version="1.1" xmlns="http://www.w3.org/2000/svg" width="256" height="256">
<path d="M0 0 C65.34 0 130.68 0 198 0 C198 125.72335063 198 125.72335063 171.609375 152.39453125 C170.74828125 153.25433594 169.8871875 154.11414063 169 155 C168.34515625 155.72574219 167.6903125 156.45148438 167.015625 157.19921875 C151.7579889 173.7935281 126.78858004 183.27904154 104.64453125 184.23828125 C75.86238762 184.90388511 50.28428154 175.97604335 29.14648438 156.24487305 C12.14802726 139.65514418 4.56235729 119.81178643 0 97 C0 64.99 0 32.98 0 0 Z " fill="#D72134" transform="translate(29,57)"/>
<path d="M0 0 C11.37014356 -0.06780776 22.74015256 -0.12283468 34.11045265 -0.15543652 C39.3902806 -0.17108465 44.6699629 -0.19230755 49.94970703 -0.22631836 C55.04605921 -0.25894192 60.14227139 -0.27685943 65.23871994 -0.28463173 C67.18196186 -0.29016983 69.12519621 -0.30098441 71.06837845 -0.31719017 C73.79266093 -0.33900418 76.51636673 -0.34196525 79.24072266 -0.34057617 C80.44266266 -0.35675491 80.44266266 -0.35675491 81.66888428 -0.3732605 C87.67743464 -0.34016389 91.74199018 1.03909674 96.375 5.0625 C98 7 98 7 98 9 C98.66 9 99.32 9 100 9 C100.226875 8.4225 100.45375 7.845 100.6875 7.25 C102.91048868 3.43916226 105.85788992 1.38070336 110 0 C112.81470122 -0.09144208 115.60416426 -0.12598604 118.41870117 -0.11352539 C119.70682961 -0.11374443 119.70682961 -0.11374443 121.02098083 -0.1139679 C123.8616691 -0.11327079 126.70229193 -0.10548783 129.54296875 -0.09765625 C131.51166244 -0.09579135 133.48035659 -0.09436779 135.4490509 -0.09336853 C140.63253051 -0.08954901 145.81598214 -0.07972352 150.99945068 -0.06866455 C156.2880414 -0.0584383 161.57663663 -0.0538683 166.86523438 -0.04882812 C177.24350386 -0.03810077 187.62174523 -0.02050851 198 0 C198 9.9 198 19.8 198 30 C132.66 30 67.32 30 0 30 C0 20.1 0 10.2 0 0 Z " fill="#D62033" transform="translate(29,15)"/>
<path d="M0 0 C0.99 0.33 1.98 0.66 3 1 C-0.51910011 3.06546731 -4.04035025 5.12723755 -7.5625 7.1875 C-8.63411377 7.81446777 -9.70572754 8.44143555 -10.80981445 9.08740234 C-19.35039987 14.069983 -27.94587242 18.94858578 -36.59790039 23.73510742 C-37.49758545 24.2376001 -38.39727051 24.74009277 -39.32421875 25.2578125 C-40.10885498 25.6923877 -40.89349121 26.12696289 -41.7019043 26.57470703 C-46.52227624 29.56433111 -49.57177245 32.40758422 -52.34765625 37.375 C-52.94763428 38.43412598 -53.5476123 39.49325195 -54.16577148 40.58447266 C-54.79169189 41.71159668 -55.4176123 42.8387207 -56.0625 44 C-57.05081081 45.75263939 -58.04295527 47.50306871 -59.03547668 49.25332642 C-59.70551706 50.43513456 -60.37444954 51.6175715 -61.0422821 52.80062866 C-64.24560173 58.46655933 -67.57291788 64.05377302 -70.9375 69.625 C-71.45127197 70.47707031 -71.96504395 71.32914062 -72.49438477 72.20703125 C-73.66094558 74.13922977 -74.82928232 76.07031833 -76 78 C-78.89402659 75.15989937 -81.31175005 72.73192095 -83 69 C-82.64110913 64.0976292 -80.86606432 60.44384541 -78.40234375 56.2890625 C-78.04862198 55.67606293 -77.69490021 55.06306335 -77.33045959 54.43148804 C-76.20803344 52.49087233 -75.07304815 50.55796064 -73.9375 48.625 C-73.17037966 47.3038753 -72.40409473 45.98226515 -71.63867188 44.66015625 C-69.76874549 41.43443187 -67.88748887 38.21548684 -66 35 C-69.47385567 35 -70.96636887 35.87484046 -74 37.5 C-78.66666667 40 -78.66666667 40 -82 40 C-83.32 37.36 -84.64 34.72 -86 32 C-84.68 31.34 -83.36 30.68 -82 30 C-82 28.68 -82 27.36 -82 26 C-80.68662604 24.9739266 -79.35335895 23.97272675 -78 23 C-78 22.01 -78 21.02 -78 20 C-76.57846115 19.64628075 -76.57846115 19.64628075 -75.12820435 19.28541565 C-66.21022862 17.0660444 -57.2928705 14.84420707 -48.3761158 12.61993504 C-43.79158088 11.47641394 -39.20683053 10.33377197 -34.62158203 9.19311523 C-30.19907008 8.09290798 -25.77713182 6.99042272 -21.35558701 5.88633537 C-19.66604851 5.46487673 -17.97630267 5.0442484 -16.28635025 4.62445259 C-13.92488858 4.03770071 -11.56417207 3.44803813 -9.20361328 2.85766602 C-8.50014771 2.68359726 -7.79668213 2.5095285 -7.07189941 2.33018494 C-3.44362427 1.42687984 -3.44362427 1.42687984 0 0 Z " fill="#FDF8F9" transform="translate(208,86)"/>
<path d="M0 0 C4.139795 1.50608214 7.744064 3.51769331 11.5 5.8125 C12.6034375 6.47894531 13.706875 7.14539063 14.84375 7.83203125 C21.88834012 12.67082768 25.3686392 18.63200253 29.5 25.9375 C30.73108827 28.08242315 31.96287665 30.22694461 33.1953125 32.37109375 C34.13358887 34.01053955 34.13358887 34.01053955 35.09082031 35.68310547 C38.14077078 40.98190688 41.25693351 46.24108714 44.375 51.5 C45.46615934 53.34374201 46.55730649 55.18749123 47.6484375 57.03125 C48.43218826 58.35422793 49.21599882 59.67717045 50 61 C52.75746999 57.69461423 55.02895473 54.41057543 57.1015625 50.640625 C57.66931396 49.61501465 58.23706543 48.5894043 58.82202148 47.53271484 C59.41700439 46.44941895 60.0119873 45.36612305 60.625 44.25 C61.87784427 41.99680501 63.13175533 39.74420287 64.38671875 37.4921875 C65.30783447 35.83654785 65.30783447 35.83654785 66.24755859 34.14746094 C80.25878456 8.98269009 80.25878456 8.98269009 88.4375 5.5625 C89.283125 5.376875 90.12875 5.19125 91 5 C86.61197778 13.12744246 82.08992785 21.172657 77.5 29.1875 C76.98459152 30.08867554 76.98459152 30.08867554 76.45877075 31.00805664 C69.91542539 42.44727928 63.29288134 53.83956141 56.63232422 65.2109375 C53.7491414 70.1372732 50.87490277 75.06882907 48 80 C44.35248225 78.78416075 44.14744257 77.99712003 42.35546875 74.71484375 C41.85104248 73.80452393 41.34661621 72.8942041 40.8269043 71.95629883 C40.28590088 70.96009521 39.74489746 69.9638916 39.1875 68.9375 C38.01198754 66.81423372 36.8348542 64.69186414 35.65625 62.5703125 C35.05039063 61.4762207 34.44453125 60.38212891 33.8203125 59.25488281 C31.01195127 54.23327982 28.10221136 49.27288609 25.1875 44.3125 C19.82249094 35.15468203 14.51807178 25.96379174 9.25 16.75 C8.89948578 16.13782623 8.54897156 15.52565247 8.18783569 14.89492798 C7.19169107 13.15462011 6.19737104 11.41326824 5.203125 9.671875 C4.63239258 8.6725293 4.06166016 7.67318359 3.47363281 6.64355469 C2.25263028 4.45319427 1.09594282 2.25477858 0 0 Z " fill="#FDF6F6" transform="translate(81,108)"/>
<path d="M0 0 C3.0254314 1.58210633 6.01928171 3.21668189 8.99951172 4.88232422 C10.45969275 5.69812954 11.92264779 6.50897547 13.38720703 7.31689453 C16.04247504 8.79271205 18.67807083 10.29984016 21.3125 11.8125 C22.17198242 12.28526367 23.03146484 12.75802734 23.91699219 13.24511719 C30.18122356 16.89539137 33.47056946 20.72894239 37 27 C37.56614014 27.96510498 38.13228027 28.93020996 38.71557617 29.92456055 C40.30767503 32.6589044 41.87738659 35.40444816 43.43328857 38.15951538 C44.82067789 40.61592725 46.21571104 43.06797048 47.61022949 45.52033997 C48.33267836 46.79095721 49.05476334 48.06178142 49.77648926 49.33280945 C53.44952117 55.79967359 57.15818715 62.24569229 60.875 68.6875 C61.49044678 69.75669678 62.10589355 70.82589355 62.73999023 71.92749023 C65.52202888 76.75161187 68.32312029 81.56095083 71.1953125 86.33203125 C71.67371582 87.12971924 72.15211914 87.92740723 72.64501953 88.74926758 C73.5215793 90.20530442 74.40493722 91.65727945 75.29638672 93.10424805 C76.2577887 94.70144239 77.13885171 96.34659528 78 98 C77.67 98.66 77.34 99.32 77 100 C75.78060265 99.18294187 74.57516262 98.34505832 73.375 97.5 C72.70210938 97.0359375 72.02921875 96.571875 71.3359375 96.09375 C64.57335467 90.03230452 60.51185188 81.85984823 56.40820312 73.890625 C53.40542259 68.42143176 50.49034828 65.71082505 45.18188477 62.50024414 C39.40310119 58.52680506 36.29991121 51.9371432 33.06860352 45.89501953 C29.10625142 38.51026926 25.81665861 32.44683807 18.19140625 28.3515625 C12.48719727 24.83345857 9.55179122 18.03839657 6.3125 12.375 C5.56516602 11.08722656 5.56516602 11.08722656 4.80273438 9.7734375 C1.13375235 3.40125705 1.13375235 3.40125705 0 0 Z " fill="#FDF6F7" transform="translate(44,86)"/>
<path d="M0 0 C2.74879474 1.37439737 3.23897659 3.03061233 4.66015625 5.74609375 C8.12789923 12.25873541 11.76912278 18.66114109 15.4375 25.0625 C16.13463358 26.28041862 16.83173584 27.49835516 17.52880859 28.71630859 C22.38231899 37.19269799 27.24903403 45.66151033 32.125 54.125 C32.72755615 55.17179932 33.3301123 56.21859863 33.95092773 57.29711914 C37.19933769 62.92693867 40.50293336 68.51091602 43.92919922 74.03466797 C45 76 45 76 45 78 C44.34 78 43.68 78 43 78 C42.67 78.66 42.34 79.32 42 80 C41.64156006 79.26281738 41.28312012 78.52563477 40.91381836 77.76611328 C37.39888335 70.62496442 33.62060771 63.71962041 29.5625 56.875 C28.3314242 54.78160688 27.1009783 52.68784322 25.87109375 50.59375 C25.23800293 49.51738281 24.60491211 48.44101563 23.95263672 47.33203125 C20.00516098 40.59595362 16.1091931 33.829974 12.22094727 27.05957031 C9.59265842 22.48371559 6.96230197 17.91263755 4.2421875 13.390625 C3.85401855 12.73787598 3.46584961 12.08512695 3.06591797 11.41259766 C2.09418077 9.78294586 1.11023256 8.16059109 0.125 6.5390625 C-1 4 -1 4 -0.6875 1.6484375 C-0.3471875 0.83246094 -0.3471875 0.83246094 0 0 Z " fill="#DB3849" transform="translate(80,107)"/>
<path d="M0 0 C1.32 0.66 2.64 1.32 4 2 C2.09085576 3.27276283 0.15502251 4.5069865 -1.8125 5.6875 C-9.716234 11.42158153 -13.71046141 19.44785295 -18.25 27.875 C-19.23991608 29.68519448 -20.23354328 31.49331881 -21.22735596 33.30137634 C-22.20798586 35.08588067 -23.18610765 36.87174347 -24.1640625 38.65771484 C-26.65395351 43.19050844 -29.1729328 47.70371807 -31.75 52.1875 C-32.14348633 52.89310059 -32.53697266 53.59870117 -32.94238281 54.32568359 C-34.046875 56.23046875 -34.046875 56.23046875 -36 59 C-36.99 59 -37.98 59 -39 59 C-40.82421875 56.4453125 -40.82421875 56.4453125 -42.6875 53.125 C-43.31011719 52.03445312 -43.93273437 50.94390625 -44.57421875 49.8203125 C-46 47 -46 47 -46 45 C-44.25 45.0625 -44.25 45.0625 -42 46 C-40.40498463 48.24164322 -39.25456982 50.53566643 -38 53 C-35.23166235 49.68495495 -32.96681291 46.39394898 -30.8984375 42.60546875 C-30.33092773 41.57470215 -29.76341797 40.54393555 -29.17871094 39.48193359 C-28.58348633 38.39477051 -27.98826172 37.30760742 -27.375 36.1875 C-24.92519641 31.7868798 -22.46433645 27.39249638 -20 23 C-19.5162793 22.13552246 -19.03255859 21.27104492 -18.53417969 20.38037109 C-13.6363942 11.7288216 -9.07970255 4.79099198 0 0 Z " fill="#DB3748" transform="translate(169,110)"/>
<path d="M0 0 C1.32 0.66 2.64 1.32 4 2 C-2 6 -2 6 -8 10 C-8.99 9.34 -9.98 8.68 -11 8 C-9.72992786 7.0406581 -8.45891081 6.08256706 -7.1875 5.125 C-6.47980469 4.59132813 -5.77210938 4.05765625 -5.04296875 3.5078125 C-3.39543703 2.29185219 -1.70375789 1.13583859 0 0 Z " fill="#DD4353" transform="translate(169,110)"/>
<path d="M0 0 C0.66 0.33 1.32 0.66 2 1 C2.625 4.0625 2.625 4.0625 3 7 C2.01 7.495 2.01 7.495 1 8 C0.26919734 6.02253397 -0.39421747 4.01927511 -1 2 C-0.67 1.34 -0.34 0.68 0 0 Z " fill="#DA3243" transform="translate(80,107)"/>
</svg>
